<svg width="16" height="15" viewBox="0 0 16 15" fill="none" xmlns="http://www.w3.org/2000/svg">
<path d="M8.5 3.75C8.5 3.47386 8.27614 3.25 8 3.25C7.72386 3.25 7.5 3.47386 7.5 3.75H8.5ZM7.5 11.25C7.5 11.5261 7.72386 11.75 8 11.75C8.27614 11.75 8.5 11.5261 8.5 11.25H7.5ZM4.25 7C3.97386 7 3.75 7.22386 3.75 7.5C3.75 7.77614 3.97386 8 4.25 8V7ZM11.75 8C12.0261 8 12.25 7.77614 12.25 7.5C12.25 7.22386 12.0261 7 11.75 7V8ZM7.5 3.75V11.25H8.5V3.75H7.5ZM4.25 8H11.75V7H4.25V8ZM14.25 7.5C14.25 10.9518 11.4518 13.75 8 13.75V14.75C12.0041 14.75 15.25 11.5041 15.25 7.5H14.25ZM8 13.75C4.54822 13.75 1.75 10.9518 1.75 7.5H0.75C0.75 11.5041 3.99594 14.75 8 14.75V13.75ZM1.75 7.5C1.75 4.04822 4.54822 1.25 8 1.25V0.25C3.99594 0.25 0.75 3.49594 0.75 7.5H1.75ZM8 1.25C11.4518 1.25 14.25 4.04822 14.25 7.5H15.25C15.25 3.49594 12.0041 0.25 8 0.25V1.25Z" fill="black"/>
</svg>