<svg width="25" height="22" viewBox="0 0 25 22" fill="none" xmlns="http://www.w3.org/2000/svg">
<path d="M23.8281 10.7712H3.90625V3.84684C3.90625 2.99837 4.60718 2.3081 5.46875 2.3081C6.023 2.3081 6.51035 2.59397 6.78784 3.02362C5.98257 4.23571 6.0707 5.88836 7.12173 7.0164C6.91782 7.24302 6.92539 7.58938 7.1457 7.80634L7.69814 8.35038C7.92695 8.57571 8.29795 8.57571 8.52681 8.35038L13.1669 3.78087C13.3958 3.55554 13.3958 3.19018 13.1669 2.96481L12.6145 2.42077C12.3942 2.20381 12.0425 2.1964 11.8124 2.39716C10.9359 1.60524 9.74722 1.36673 8.67866 1.65832C7.9727 0.657185 6.79746 0 5.46875 0C3.31484 0 1.5625 1.72569 1.5625 3.84684V10.7712H1.17188C0.524658 10.7712 0 11.2878 0 11.9252V12.6946C0 13.3319 0.524658 13.8486 1.17188 13.8486H1.5625V15.3874C1.5625 16.7544 2.16611 17.9825 3.125 18.8277V20.3883C3.125 21.0256 3.64966 21.5423 4.29688 21.5423H5.07812C5.72534 21.5423 6.25 21.0256 6.25 20.3883V20.0036H18.75V20.3883C18.75 21.0256 19.2747 21.5423 19.9219 21.5423H20.7031C21.3503 21.5423 21.875 21.0256 21.875 20.3883V18.8277C22.8339 17.9825 23.4375 16.7544 23.4375 15.3874V13.8486H23.8281C24.4753 13.8486 25 13.3319 25 12.6946V11.9252C25 11.2878 24.4753 10.7712 23.8281 10.7712Z" fill="#404655"/>
</svg>
