<svg width="25" height="14" viewBox="0 0 25 14" fill="none" xmlns="http://www.w3.org/2000/svg">
<path d="M6.875 7.23906C8.59805 7.23906 10 6.03101 10 4.54627C10 3.06153 8.59805 1.85348 6.875 1.85348C5.15195 1.85348 3.75 3.06153 3.75 4.54627C3.75 6.03101 5.15195 7.23906 6.875 7.23906ZM20.625 2.9306H11.875C11.5297 2.9306 11.25 3.1716 11.25 3.46916V8.31617H2.5V1.31492C2.5 1.01737 2.22031 0.776367 1.875 0.776367H0.625C0.279687 0.776367 0 1.01737 0 1.31492V13.1632C0 13.4607 0.279687 13.7018 0.625 13.7018H1.875C2.22031 13.7018 2.5 13.4607 2.5 13.1632V11.5475H22.5V13.1632C22.5 13.4607 22.7797 13.7018 23.125 13.7018H24.375C24.7203 13.7018 25 13.4607 25 13.1632V6.7005C25 4.6183 23.0414 2.9306 20.625 2.9306Z" fill="#404655"/>
</svg>
