<svg width="23" height="23" viewBox="0 0 20 20" fill="none" xmlns="http://www.w3.org/2000/svg">
<path d="M16.2638 4.91681C16.5225 4.65809 16.5225 4.23863 16.2638 3.97992C16.0051 3.72121 15.5857 3.72121 15.3269 3.97992L16.2638 4.91681ZM3.95767 15.3492C3.69896 15.6079 3.69896 16.0274 3.95767 16.2861C4.21639 16.5448 4.63585 16.5448 4.89456 16.2861L3.95767 15.3492ZM4.89457 3.97992C4.63586 3.72121 4.2164 3.72121 3.95768 3.97992C3.69897 4.23863 3.69897 4.65809 3.95768 4.91681L4.89457 3.97992ZM15.327 16.2861C15.5857 16.5448 16.0051 16.5448 16.2638 16.2861C16.5226 16.0274 16.5226 15.6079 16.2638 15.3492L15.327 16.2861ZM15.3269 3.97992L3.95767 15.3492L4.89456 16.2861L16.2638 4.91681L15.3269 3.97992ZM3.95768 4.91681L15.327 16.2861L16.2638 15.3492L4.89457 3.97992L3.95768 4.91681Z" fill="white"/>
</svg>