<svg width="24" height="19" viewBox="0 0 24 19" fill="none" xmlns="http://www.w3.org/2000/svg">
<path d="M21.4189 7.24072L20.8701 5.86902L19.897 3.43657C19.0615 1.34876 17.0688 0 14.8193 0H8.61816C6.36914 0 4.37598 1.34876 3.54053 3.43657L2.56738 5.86902L2.01855 7.24072C0.84082 7.68835 0 8.81891 0 10.1535V12.4966C0 13.2835 0.300781 13.9938 0.78125 14.5434V17.1829C0.78125 18.0454 1.48096 18.7449 2.34375 18.7449H3.90625C4.76904 18.7449 5.46875 18.0454 5.46875 17.1829V15.6208H17.9688V17.1829C17.9688 18.0454 18.6685 18.7449 19.5312 18.7449H21.0938C21.9565 18.7449 22.6562 18.0454 22.6562 17.1829V14.5434C23.1367 13.9943 23.4375 13.284 23.4375 12.4966V10.1535C23.4375 8.81891 22.5967 7.68835 21.4189 7.24072ZM6.44189 4.5969C6.79785 3.7075 7.65967 3.12416 8.61816 3.12416H14.8193C15.7778 3.12416 16.6396 3.7075 16.9956 4.5969L17.9688 7.02935H5.46875L6.44189 4.5969ZM3.90625 12.4869C2.96875 12.4869 2.34375 11.864 2.34375 10.9297C2.34375 9.99535 2.96875 9.37247 3.90625 9.37247C4.84375 9.37247 6.25 10.7739 6.25 11.7083C6.25 12.6426 4.84375 12.4869 3.90625 12.4869ZM19.5312 12.4869C18.5938 12.4869 17.1875 12.6426 17.1875 11.7083C17.1875 10.7739 18.5938 9.37247 19.5312 9.37247C20.4688 9.37247 21.0938 9.99535 21.0938 10.9297C21.0938 11.864 20.4688 12.4869 19.5312 12.4869Z" fill="#131A2D"/>
</svg>
