<svg width="25" height="20" viewBox="0 0 25 20" fill="none" xmlns="http://www.w3.org/2000/svg">
<path d="M10.0184 8.46758L13.4062 12.7324C13.4062 12.7324 12.7578 16.7309 10.4152 18.5965C8.07266 20.4629 0 19.9293 0 19.9293C0 19.9293 0.148438 19.0254 0.429688 17.7641L4.12578 13.3824C4.28086 13.1988 4.0918 12.9285 3.86602 13.0113L1.50664 13.8742C2.0707 12.2469 2.78477 10.7477 3.63945 10.0668C5.98203 8.20117 10.0184 8.46758 10.0184 8.46758ZM24.8645 1.21211L24.0887 0.235548C23.8742 -0.0339833 23.4824 -0.0789052 23.2133 0.135548L14.132 7.08086L12.7984 5.40235C12.5996 5.15195 12.207 5.19883 12.0723 5.48867L11.0828 7.61953L14.4707 11.8844L16.7676 11.398C17.0801 11.332 17.2137 10.9605 17.0152 10.7105L15.6836 9.03399L24.7648 2.08867C25.034 1.87461 25.0789 1.48203 24.8645 1.21211Z" fill="#181F39"/>
</svg>
