<svg width="265" height="265" viewBox="0 0 265 265" fill="none" xmlns="http://www.w3.org/2000/svg">
<circle cx="132.5" cy="132.5" r="130" fill="#D9D9D9"/>
<circle cx="132.5" cy="132.5" r="130" fill="url(#paint0_linear_461_1921)"/>
<circle cx="132.5" cy="132.5" r="130" stroke="#181F39" stroke-width="5"/>
<path d="M176.327 65.231H88.6734C80.6081 65.231 74.0645 70.8805 74.0645 77.8439V187.156C74.0645 194.12 80.6081 199.769 88.6734 199.769H176.327C184.393 199.769 190.936 194.12 190.936 187.156V77.8439C190.936 70.8805 184.393 65.231 176.327 65.231ZM132.5 98.8656C143.244 98.8656 151.979 106.407 151.979 115.683C151.979 124.959 143.244 132.5 132.5 132.5C121.757 132.5 113.022 124.959 113.022 115.683C113.022 106.407 121.757 98.8656 132.5 98.8656ZM166.588 161.09C166.588 163.875 163.544 166.135 159.77 166.135H105.23C101.456 166.135 98.4127 163.875 98.4127 161.09V156.044C98.4127 147.688 107.574 140.909 118.865 140.909C119.872 140.909 120.869 141.092 121.83 141.391C125.171 142.43 128.754 143.011 132.5 143.011C136.243 143.011 139.848 142.431 143.171 141.394C144.133 141.094 145.129 140.909 146.135 140.909C157.427 140.909 166.588 147.688 166.588 156.044V161.09Z" fill="#252D4A" fill-opacity="0.8"/>
<defs>
<linearGradient id="paint0_linear_461_1921" x1="132.5" y1="0" x2="132.5" y2="265" gradientUnits="userSpaceOnUse">
<stop stop-color="#181F39"/>
<stop offset="1" stop-color="#475177"/>
</linearGradient>
</defs>
</svg>
