<svg width="18" height="13" viewBox="0 0 18 13" fill="none" xmlns="http://www.w3.org/2000/svg">
<path d="M8.76136 3.35318L3.00024 7.73474V12.4637C3.00024 12.5862 3.05291 12.7036 3.14667 12.7902C3.24043 12.8767 3.3676 12.9254 3.5002 12.9254L7.0018 12.917C7.13397 12.9164 7.26049 12.8675 7.35371 12.781C7.44694 12.6945 7.49927 12.5774 7.49927 12.4553V9.69368C7.49927 9.57123 7.55194 9.45381 7.6457 9.36723C7.73946 9.28065 7.86663 9.23201 7.99923 9.23201H9.99907C10.1317 9.23201 10.2588 9.28065 10.3526 9.36723C10.4464 9.45381 10.499 9.57123 10.499 9.69368V12.4533C10.4988 12.5141 10.5116 12.5743 10.5366 12.6304C10.5617 12.6866 10.5985 12.7377 10.6449 12.7807C10.6914 12.8237 10.7465 12.8579 10.8073 12.8812C10.8681 12.9045 10.9332 12.9164 10.999 12.9164L14.4994 12.9254C14.6319 12.9254 14.7591 12.8767 14.8529 12.7902C14.9466 12.7036 14.9993 12.5862 14.9993 12.4637V7.73157L9.23944 3.35318C9.17173 3.30278 9.08737 3.2753 9.0004 3.2753C8.91343 3.2753 8.82907 3.30278 8.76136 3.35318ZM17.8616 6.33126L15.2493 4.34289V0.346254C15.2493 0.254422 15.2098 0.166351 15.1395 0.101416C15.0691 0.0364803 14.9738 0 14.8743 0H13.1245C13.025 0 12.9296 0.0364803 12.8593 0.101416C12.789 0.166351 12.7495 0.254422 12.7495 0.346254V2.44138L9.95189 0.315957C9.68342 0.11195 9.34653 0.000407814 8.99884 0.000407814C8.65115 0.000407814 8.31426 0.11195 8.04579 0.315957L0.136083 6.33126C0.0981131 6.36024 0.0666992 6.39584 0.043636 6.43604C0.0205728 6.47623 0.00631225 6.52023 0.0016693 6.56551C-0.00297366 6.6108 0.00209192 6.65649 0.0165766 6.69996C0.0310613 6.74344 0.0546812 6.78386 0.0860867 6.8189L0.8829 7.71339C0.91422 7.74856 0.952744 7.77768 0.996266 7.79908C1.03979 7.82048 1.08745 7.83374 1.13653 7.83811C1.18562 7.84248 1.23515 7.83787 1.28229 7.82454C1.32944 7.81121 1.37328 7.78942 1.4113 7.76042L8.76136 2.17015C8.82907 2.11975 8.91343 2.09226 9.0004 2.09226C9.08737 2.09226 9.17173 2.11975 9.23944 2.17015L16.5898 7.76042C16.6278 7.78942 16.6715 7.81124 16.7186 7.82461C16.7657 7.83799 16.8152 7.84266 16.8642 7.83838C16.9133 7.83409 16.9609 7.82092 17.0044 7.79962C17.048 7.77833 17.0865 7.74932 17.1179 7.71426L17.9147 6.81977C17.9461 6.78452 17.9696 6.7439 17.9839 6.70023C17.9982 6.65656 18.0031 6.61071 17.9981 6.56532C17.9932 6.51992 17.9786 6.47587 17.9552 6.43571C17.9317 6.39554 17.8999 6.36004 17.8616 6.33126Z" fill="#404655"/>
</svg>
