<svg width="30" height="31" viewBox="0 0 30 31" fill="none" xmlns="http://www.w3.org/2000/svg">
<g filter="url(#filter0_d_482_634)">
<path d="M14.946 6.15666C11.8406 6.15666 9.33569 8.66965 9.33569 11.7852C9.33569 14.9007 11.8406 17.4137 14.946 17.4137C18.0515 17.4137 20.5564 14.9007 20.5564 11.7852C20.5564 8.66965 18.0515 6.15666 14.946 6.15666ZM14.946 15.4444C12.9392 15.4444 11.2986 13.8034 11.2986 11.7852C11.2986 9.76694 12.9343 8.12591 14.946 8.12591C16.9578 8.12591 18.5935 9.76694 18.5935 11.7852C18.5935 13.8034 16.9529 15.4444 14.946 15.4444ZM22.0945 5.92643C22.0945 6.65632 21.5085 7.23926 20.7859 7.23926C20.0584 7.23926 19.4773 6.65142 19.4773 5.92643C19.4773 5.20143 20.0632 4.6136 20.7859 4.6136C21.5085 4.6136 22.0945 5.20143 22.0945 5.92643ZM25.8103 7.25885C25.7273 5.50025 25.3269 3.94248 24.0427 2.65905C22.7634 1.37561 21.2107 0.973922 19.4578 0.885747C17.6511 0.782876 12.2361 0.782876 10.4294 0.885747C8.6814 0.969024 7.12866 1.37071 5.84448 2.65415C4.5603 3.93759 4.16479 5.49535 4.0769 7.25395C3.97437 9.06644 3.97437 14.499 4.0769 16.3115C4.15991 18.0701 4.5603 19.6279 5.84448 20.9113C7.12866 22.1947 8.67651 22.5964 10.4294 22.6846C12.2361 22.7875 17.6511 22.7875 19.4578 22.6846C21.2107 22.6013 22.7634 22.1996 24.0427 20.9113C25.322 19.6279 25.7224 18.0701 25.8103 16.3115C25.9128 14.499 25.9128 9.07134 25.8103 7.25885ZM23.4763 18.2562C23.0955 19.2164 22.3582 19.9561 21.3962 20.3431C19.9558 20.9162 16.5378 20.7839 14.946 20.7839C13.3542 20.7839 9.9314 20.9113 8.49585 20.3431C7.53882 19.961 6.80151 19.2213 6.41577 18.2562C5.84448 16.8112 5.97632 13.3821 5.97632 11.7852C5.97632 10.1882 5.84937 6.75429 6.41577 5.3141C6.79663 4.35397 7.53394 3.61428 8.49585 3.22729C9.93628 2.65415 13.3542 2.78641 14.946 2.78641C16.5378 2.78641 19.9607 2.65905 21.3962 3.22729C22.3533 3.60938 23.0906 4.34907 23.4763 5.3141C24.0476 6.75919 23.9158 10.1882 23.9158 11.7852C23.9158 13.3821 24.0476 16.8161 23.4763 18.2562Z" fill="white"/>
<path d="M25.3109 7.28242L25.3108 7.28242L25.3111 7.28709C25.4126 9.08077 25.4126 14.4896 25.3111 16.2833L25.3109 16.2865C25.2261 17.9831 24.8451 19.398 23.6886 20.5583L23.6879 20.559C22.5319 21.7232 21.123 22.1049 19.434 22.1851L19.4293 22.1854C17.6416 22.2872 12.2456 22.2872 10.4579 22.1854L10.4546 22.1852C8.76508 22.1002 7.35957 21.7186 6.19793 20.5576C5.0372 19.3976 4.65637 17.9833 4.57635 16.2879L4.57637 16.2879L4.57611 16.2833C4.47463 14.4896 4.47463 9.07587 4.57611 7.28219L4.57612 7.28219L4.57628 7.27891C4.66113 5.58124 5.03767 4.1674 6.19793 3.0078C7.35936 1.84705 8.76941 1.4654 10.4532 1.38518L10.4532 1.3852L10.4579 1.38494C12.2456 1.28315 17.6416 1.28315 19.4293 1.38494L19.4293 1.38495L19.4326 1.38512C21.1228 1.47013 22.5324 1.85204 23.6886 3.01203L23.6893 3.0127C24.85 4.17276 25.2308 5.58702 25.3109 7.28242ZM21.5811 20.8076L21.5829 20.8069C22.6713 20.369 23.5095 19.5286 23.9411 18.4406C24.2636 17.6275 24.3719 16.3234 24.41 15.095C24.4379 14.1982 24.4287 13.2832 24.4213 12.5501C24.4184 12.2633 24.4158 12.0043 24.4158 11.7852C24.4158 11.566 24.4184 11.3071 24.4213 11.0203C24.4287 10.2876 24.4379 9.37348 24.41 8.47716C24.3719 7.24912 24.2636 5.94549 23.9413 5.13027L23.9406 5.12851C23.5045 4.03751 22.6671 3.1963 21.5816 2.76293L21.5803 2.76238C20.7698 2.44159 19.4701 2.33289 18.2456 2.29401C17.3448 2.26541 16.4263 2.27424 15.6928 2.28129C15.4133 2.28398 15.1606 2.28641 14.946 2.28641C14.7276 2.28641 14.4696 2.28379 14.1838 2.28089C13.4535 2.27348 12.5421 2.26422 11.6486 2.29217C10.4245 2.33045 9.12433 2.43909 8.311 2.76271L8.311 2.76271L8.30923 2.76342C7.22077 3.20132 6.38259 4.04172 5.951 5.12973L5.95046 5.1311C5.631 5.9434 5.52265 7.2466 5.48389 8.47509C5.45538 9.37867 5.46419 10.3 5.47122 11.0358C5.4739 11.3163 5.47632 11.5698 5.47632 11.7852C5.47632 12.0044 5.47371 12.2633 5.47081 12.55C5.46342 13.2827 5.4542 14.1969 5.48205 15.0932C5.52021 16.3212 5.62851 17.6249 5.95078 18.4401L5.95149 18.4418C6.38759 19.5328 7.22497 20.374 8.31046 20.8074L8.31182 20.808C9.12225 21.1288 10.422 21.2375 11.6465 21.2763C12.5473 21.3049 13.4658 21.2961 14.1993 21.2891C14.4788 21.2864 14.7315 21.2839 14.946 21.2839C15.1644 21.2839 15.4225 21.2866 15.7083 21.2895C16.4386 21.2969 17.35 21.3061 18.2435 21.2782C19.4676 21.2399 20.7678 21.1313 21.5811 20.8076ZM9.83569 11.7852C9.83569 8.94427 12.1182 6.65666 14.946 6.65666C17.7738 6.65666 20.0564 8.94427 20.0564 11.7852C20.0564 14.6261 17.7738 16.9137 14.946 16.9137C12.1182 16.9137 9.83569 14.6261 9.83569 11.7852ZM10.7986 11.7852C10.7986 14.0785 12.662 15.9444 14.946 15.9444C17.2301 15.9444 19.0935 14.0785 19.0935 11.7852C19.0935 9.49232 17.2354 7.62591 14.946 7.62591C12.6567 7.62591 10.7986 9.49232 10.7986 11.7852ZM21.5945 5.92643C21.5945 6.38049 21.2321 6.73926 20.7859 6.73926C20.3372 6.73926 19.9773 6.37802 19.9773 5.92643C19.9773 5.47605 20.3409 5.1136 20.7859 5.1136C21.2309 5.1136 21.5945 5.47605 21.5945 5.92643Z" stroke="white"/>
</g>
<defs>
<filter id="filter0_d_482_634" x="0" y="0.808594" width="29.8872" height="29.9531" filterUnits="userSpaceOnUse" color-interpolation-filters="sRGB">
<feFlood flood-opacity="0" result="BackgroundImageFix"/>
<feColorMatrix in="SourceAlpha" type="matrix" values="0 0 0 0 0 0 0 0 0 0 0 0 0 0 0 0 0 0 127 0" result="hardAlpha"/>
<feOffset dy="4"/>
<feGaussianBlur stdDeviation="2"/>
<feComposite in2="hardAlpha" operator="out"/>
<feColorMatrix type="matrix" values="0 0 0 0 0 0 0 0 0 0 0 0 0 0 0 0 0 0 0.25 0"/>
<feBlend mode="normal" in2="BackgroundImageFix" result="effect1_dropShadow_482_634"/>
<feBlend mode="normal" in="SourceGraphic" in2="effect1_dropShadow_482_634" result="shape"/>
</filter>
</defs>
</svg>
