<svg width="26" height="24" viewBox="0 0 23 24" fill="none" xmlns="http://www.w3.org/2000/svg">
<path d="M5.1483 23.8801H0.379911V8.47449H5.1483V23.8801ZM2.76154 6.37301C1.23676 6.37301 0 5.10595 0 3.57621C1.09137e-08 2.84141 0.290947 2.13671 0.808836 1.61714C1.32673 1.09756 2.02913 0.805664 2.76154 0.805664C3.49395 0.805664 4.19635 1.09756 4.71424 1.61714C5.23213 2.13671 5.52308 2.84141 5.52308 3.57621C5.52308 5.10595 4.2858 6.37301 2.76154 6.37301ZM22.9949 23.8801H18.2367V16.3808C18.2367 14.5935 18.2008 12.3014 15.7576 12.3014C13.2784 12.3014 12.8985 14.2432 12.8985 16.252V23.8801H8.13522V8.47449H12.7085V10.576H12.7753C13.4119 9.36555 14.9669 8.08819 17.287 8.08819C22.1129 8.08819 23 11.2764 23 15.4176V23.8801H22.9949Z" fill="white"/>
</svg>
