<svg width="15" height="18" viewBox="0 0 15 18" fill="none" xmlns="http://www.w3.org/2000/svg">
<path d="M6.72922 16.9281C1.05352 9.83805 0 9.11039 0 6.50468C0 2.93543 3.35785 0.0419922 7.5 0.0419922C11.6421 0.0419922 15 2.93543 15 6.50468C15 9.11039 13.9465 9.83805 8.27078 16.9281C7.89832 17.3918 7.10164 17.3917 6.72922 16.9281ZM7.5 9.19747C9.2259 9.19747 10.625 7.99188 10.625 6.50468C10.625 5.01749 9.2259 3.81189 7.5 3.81189C5.7741 3.81189 4.375 5.01749 4.375 6.50468C4.375 7.99188 5.7741 9.19747 7.5 9.19747Z" fill="#404655"/>
</svg>
