<svg width="19" height="19" viewBox="0 0 19 19" fill="none" xmlns="http://www.w3.org/2000/svg">
<path d="M17.2188 2.96875H1.78125C1.62378 2.96875 1.47276 3.03131 1.36141 3.14266C1.25006 3.25401 1.1875 3.40503 1.1875 3.5625V15.4375C1.1875 15.595 1.25006 15.746 1.36141 15.8573C1.47276 15.9687 1.62378 16.0313 1.78125 16.0313H17.2188C17.3762 16.0313 17.5272 15.9687 17.6386 15.8573C17.7499 15.746 17.8125 15.595 17.8125 15.4375V3.5625C17.8125 3.40503 17.7499 3.25401 17.6386 3.14266C17.5272 3.03131 17.3762 2.96875 17.2188 2.96875ZM9.86442 10.5624C9.76021 10.6434 9.63199 10.6874 9.5 10.6874C9.36801 10.6874 9.23979 10.6434 9.13559 10.5624L3.32314 6.04178L4.05197 5.1044L9.5 9.34154L14.948 5.1044L15.6769 6.04178L9.86442 10.5624Z" fill="#666666"/>
</svg>
