<svg width="25" height="22" viewBox="0 0 25 22" fill="none" xmlns="http://www.w3.org/2000/svg">
<path d="M21.0615 4.39684L24.6519 2.08141C24.7372 2.02451 24.8106 1.95135 24.8677 1.8661C24.9248 1.78085 24.9646 1.68519 24.9847 1.58457C25.0048 1.48396 25.0049 1.38036 24.985 1.2797C24.9651 1.17905 24.9256 1.08329 24.8687 0.997919L24.4355 0.348017C24.3786 0.262629 24.3055 0.189288 24.2202 0.13218C24.135 0.0750719 24.0393 0.0353167 23.9387 0.0151846C23.8381 -0.00494744 23.7345 -0.00506199 23.6338 0.0148475C23.5332 0.034757 23.4374 0.0743005 23.3521 0.13122L17.978 3.59802C15.5483 3.16931 13.2432 3.12487 12.5 3.12487C10.7202 3.12487 0 3.34704 0 8.60095V16.4247C0 17.9027 1.34277 19.2411 3.51562 20.2264V15.2508C3.51562 14.94 3.63909 14.642 3.85886 14.4222C4.07863 14.2024 4.3767 14.079 4.6875 14.079C4.9983 14.079 5.29637 14.2024 5.51614 14.4222C5.73591 14.642 5.85938 14.94 5.85938 15.2508V21.058C7.47314 21.5028 9.32959 21.7933 11.3281 21.8749V16.8158C11.3281 16.505 11.4516 16.2069 11.6714 15.9871C11.8911 15.7674 12.1892 15.6439 12.5 15.6439C12.8108 15.6439 13.1089 15.7674 13.3286 15.9871C13.5484 16.2069 13.6719 16.505 13.6719 16.8158V21.8749C15.6704 21.7933 17.5269 21.5028 19.1406 21.058V15.2508C19.1406 14.94 19.2641 14.642 19.4839 14.4222C19.7036 14.2024 20.0017 14.079 20.3125 14.079C20.6233 14.079 20.9214 14.2024 21.1411 14.4222C21.3609 14.642 21.4844 14.94 21.4844 15.2508V20.2264C23.6572 19.2411 25 17.9027 25 16.4247V8.60095C25 6.48571 23.2539 5.1947 21.0615 4.39684ZM12.5 11.7303C6.89062 11.7303 2.34375 10.3295 2.34375 8.60095C2.34375 6.87243 6.89062 5.47204 12.5 5.47204C13.3374 5.47204 14.147 5.50671 14.9258 5.5653L11.3706 7.86022C11.2853 7.91716 11.212 7.99035 11.1549 8.07562C11.0978 8.16089 11.0581 8.25656 11.038 8.35717C11.018 8.45778 11.0179 8.56137 11.0378 8.66201C11.0578 8.76265 11.0974 8.85837 11.1543 8.94372L11.5874 9.59362C11.6443 9.67901 11.7175 9.75235 11.8027 9.80946C11.888 9.86657 11.9836 9.90632 12.0842 9.92645C12.1849 9.94659 12.2885 9.9467 12.3891 9.92679C12.4898 9.90688 12.5855 9.86734 12.6709 9.81042L18.4639 6.07409C21.0005 6.6405 22.6562 7.56042 22.6562 8.60095C22.6562 10.3295 18.1089 11.7303 12.5 11.7303Z" fill="#181F39"/>
</svg>
