<svg width="18" height="13" viewBox="0 0 18 13" fill="none" xmlns="http://www.w3.org/2000/svg">
<path d="M16.2141 2.76973H2.8125C2.50172 2.76973 2.25 2.56315 2.25 2.3081C2.25 2.05306 2.50172 1.84648 2.8125 1.84648H16.3125C16.6233 1.84648 16.875 1.63991 16.875 1.38486C16.875 0.620014 16.1195 0 15.1875 0H2.25C1.00723 0 0 0.82659 0 1.84648V11.0789C0 12.0988 1.00723 12.9254 2.25 12.9254H16.2141C17.1991 12.9254 18 12.3042 18 11.5405V4.15459C18 3.39089 17.1991 2.76973 16.2141 2.76973ZM14.625 8.7708C14.0038 8.7708 13.5 8.35736 13.5 7.84755C13.5 7.33775 14.0038 6.92431 14.625 6.92431C15.2462 6.92431 15.75 7.33775 15.75 7.84755C15.75 8.35736 15.2462 8.7708 14.625 8.7708Z" fill="#404655"/>
</svg>
