<svg width="18" height="18" viewBox="0 0 18 18" fill="none" xmlns="http://www.w3.org/2000/svg">
<path d="M8.99932 6.1875C8.44306 6.1875 7.89929 6.35245 7.43678 6.66149C6.97426 6.97054 6.61378 7.40979 6.40091 7.92371C6.18804 8.43762 6.13234 9.00312 6.24086 9.54869C6.34938 10.0943 6.61725 10.5954 7.01058 10.9887C7.40392 11.3821 7.90506 11.6499 8.45063 11.7585C8.9962 11.867 9.5617 11.8113 10.0756 11.5984C10.5895 11.3855 11.0288 11.0251 11.3378 10.5625C11.6469 10.1 11.8118 9.55626 11.8118 9C11.8096 8.25477 11.5126 7.54069 10.9856 7.01372C10.4586 6.48676 9.74456 6.18973 8.99932 6.1875ZM15.0715 9C15.07 9.2628 15.0508 9.5252 15.0139 9.78539L16.7256 11.1256C16.8002 11.1871 16.8504 11.2732 16.8673 11.3684C16.8843 11.4636 16.8668 11.5617 16.8181 11.6452L15.1988 14.4408C15.1495 14.5235 15.0727 14.5863 14.9818 14.618C14.8909 14.6497 14.7917 14.6483 14.7017 14.6141L12.689 13.8055C12.2699 14.1282 11.8112 14.3961 11.3242 14.6025L11.0233 16.7393C11.0064 16.835 10.9569 16.9219 10.8831 16.9851C10.8093 17.0484 10.7158 17.084 10.6186 17.0859H7.38002C7.28463 17.0841 7.19268 17.0499 7.11918 16.9891C7.04569 16.9282 6.99499 16.8443 6.97537 16.7509L6.67444 14.6141C6.18607 14.4101 5.7271 14.1418 5.30967 13.8164L3.29697 14.625C3.207 14.6593 3.10784 14.6607 3.01692 14.629C2.926 14.5974 2.84914 14.5347 2.79987 14.452L1.18057 11.6568C1.13183 11.5733 1.11436 11.4752 1.1313 11.38C1.14824 11.2848 1.19848 11.1987 1.27303 11.1372L2.98479 9.797C2.94828 9.53287 2.92902 9.26664 2.92713 9C2.92859 8.7372 2.94786 8.47481 2.98479 8.21461L1.27303 6.87445C1.19848 6.8129 1.14824 6.72683 1.1313 6.63164C1.11436 6.53645 1.13183 6.43834 1.18057 6.35485L2.79987 3.55922C2.84909 3.47646 2.92592 3.41371 3.01685 3.38201C3.10777 3.35031 3.20697 3.35168 3.29697 3.3859L5.30967 4.19449C5.72877 3.87176 6.18741 3.60393 6.67444 3.3975L6.97537 1.2607C6.99222 1.16499 7.04178 1.0781 7.11558 1.01487C7.18939 0.951646 7.28286 0.916013 7.38002 0.914062H10.6186C10.714 0.915919 10.806 0.950059 10.8795 1.01091C10.9529 1.07176 11.0036 1.15573 11.0233 1.2491L11.3242 3.3859C11.8132 3.5898 12.2727 3.85806 12.6907 4.18359L14.7017 3.375C14.7916 3.34076 14.8908 3.33932 14.9817 3.37096C15.0726 3.4026 15.1495 3.46527 15.1988 3.54797L16.8181 6.3436C16.8668 6.42709 16.8843 6.5252 16.8673 6.62039C16.8504 6.71558 16.8002 6.80165 16.7256 6.8632L15.0139 8.20336C15.0503 8.46737 15.0696 8.73349 15.0715 9Z" fill="#666666"/>
</svg>
