<svg width="25" height="23" viewBox="0 0 25 23" fill="none" xmlns="http://www.w3.org/2000/svg">
<path d="M24.6737 7.70175L18.4236 13.6039C17.7648 14.2261 16.6667 13.7648 16.6667 12.8466V9.72319C10.3917 9.76529 7.74453 11.2472 9.51497 17.1604C9.70955 17.8103 8.95742 18.3135 8.42964 17.9126C6.73837 16.6278 5.20833 14.1705 5.20833 11.6901C5.20833 5.4428 10.3125 4.20309 16.6667 4.16785V1.0422C16.6667 0.123187 17.7655 -0.336622 18.4236 0.284906L24.6737 6.18716C25.1086 6.59788 25.1089 7.29068 24.6737 7.70175ZM16.6667 16.4552V19.4445H2.77778V5.55557H4.98767C5.05781 5.55552 5.12721 5.5413 5.19172 5.51375C5.25622 5.48621 5.31449 5.44591 5.36302 5.39528C6.01202 4.71958 6.7622 4.18478 7.57717 3.76004C8.06024 3.50826 7.88125 2.77779 7.3365 2.77779H2.08333C0.932726 2.77779 0 3.71051 0 4.86112V20.1389C0 21.2895 0.932726 22.2222 2.08333 22.2222H17.3611C18.5117 22.2222 19.4444 21.2895 19.4444 20.1389V16.2845C19.4444 15.9247 19.0887 15.674 18.7495 15.7939C18.274 15.9621 17.7648 16.0124 17.2656 15.9405C16.9501 15.8951 16.6667 16.1364 16.6667 16.4552Z" fill="#181F39"/>
</svg>
