<svg width="18" height="17" viewBox="0 0 18 17" fill="none" xmlns="http://www.w3.org/2000/svg">
<g clip-path="url(#clip0_893_822)">
<path d="M16.875 16.4697H1.6875C1.38913 16.4697 1.10298 16.3578 0.892005 16.1585C0.681026 15.9593 0.5625 15.689 0.5625 15.4072V1.06348C0.5625 0.92258 0.621763 0.787455 0.727252 0.687826C0.832742 0.588197 0.975816 0.532227 1.125 0.532227C1.27418 0.532227 1.41726 0.588197 1.52275 0.687826C1.62824 0.787455 1.6875 0.92258 1.6875 1.06348V15.4072H16.875C17.0242 15.4072 17.1673 15.4632 17.2727 15.5628C17.3782 15.6625 17.4375 15.7976 17.4375 15.9385C17.4375 16.0794 17.3782 16.2145 17.2727 16.3141C17.1673 16.4138 17.0242 16.4697 16.875 16.4697Z" fill="#666666"/>
<path d="M5.48438 14.3438H4.07812C3.74246 14.3438 3.42054 14.2178 3.18319 13.9937C2.94584 13.7695 2.8125 13.4655 2.8125 13.1484V8.10156C2.8125 7.78455 2.94584 7.48051 3.18319 7.25635C3.42054 7.03218 3.74246 6.90625 4.07812 6.90625H5.48438C5.82004 6.90625 6.14196 7.03218 6.37931 7.25635C6.61666 7.48051 6.75 7.78455 6.75 8.10156V13.1484C6.75 13.4655 6.61666 13.7695 6.37931 13.9937C6.14196 14.2178 5.82004 14.3438 5.48438 14.3438Z" fill="#666666"/>
<path d="M10.5469 14.3438H9.14062C8.80496 14.3438 8.48304 14.2178 8.24569 13.9937C8.00834 13.7695 7.875 13.4655 7.875 13.1484V6.50781C7.875 6.1908 8.00834 5.88676 8.24569 5.6626C8.48304 5.43843 8.80496 5.3125 9.14062 5.3125H10.5469C10.8825 5.3125 11.2045 5.43843 11.4418 5.6626C11.6792 5.88676 11.8125 6.1908 11.8125 6.50781V13.1484C11.8125 13.4655 11.6792 13.7695 11.4418 13.9937C11.2045 14.2178 10.8825 14.3438 10.5469 14.3438Z" fill="#666666"/>
<path d="M15.5957 14.3447H14.1895C13.8538 14.3447 13.5319 14.2188 13.2945 13.9946C13.0572 13.7705 12.9238 13.4664 12.9238 13.1494V4.38379C12.9238 4.06677 13.0572 3.76274 13.2945 3.53858C13.5319 3.31441 13.8538 3.18848 14.1895 3.18848H15.5957C15.9314 3.18848 16.2533 3.31441 16.4906 3.53858C16.728 3.76274 16.8613 4.06677 16.8613 4.38379V13.1494C16.8613 13.4664 16.728 13.7705 16.4906 13.9946C16.2533 14.2188 15.9314 14.3447 15.5957 14.3447Z" fill="#666666"/>
</g>
<defs>
<clipPath id="clip0_893_822">
<rect width="18" height="17" fill="white"/>
</clipPath>
</defs>
</svg>
