<svg width="17" height="19" viewBox="0 0 17 19" fill="none" xmlns="http://www.w3.org/2000/svg">
<path d="M11.157 9.50093C10.4743 9.50093 9.81409 9.16022 9.29738 8.54189C8.79494 7.93878 8.4881 7.1345 8.43397 6.27789C8.37619 5.36413 8.62558 4.52385 9.13599 3.91146C9.64639 3.29907 10.36 2.96875 11.157 2.96875C11.9484 2.96875 12.664 3.30501 13.1727 3.91592C13.6865 4.53276 13.9365 5.37155 13.8787 6.27752C13.8233 7.13524 13.5168 7.93915 13.0153 8.54152C12.4999 9.16022 11.8401 9.50093 11.157 9.50093Z" fill="#666666"/>
<path d="M15.532 16.0313H6.77795C6.63721 16.0321 6.49817 15.9968 6.37153 15.9282C6.24489 15.8595 6.13403 15.7593 6.04749 15.6353C5.95568 15.5008 5.89228 15.3449 5.86204 15.1791C5.83179 15.0134 5.83548 14.8422 5.87284 14.6782C6.15241 13.4236 6.84503 12.383 7.87565 11.6694C8.7904 11.0363 9.95483 10.6875 11.1548 10.6875C12.3783 10.6875 13.5122 11.0215 14.4323 11.6542C15.4652 12.3641 16.1588 13.4106 16.4371 14.6805C16.474 14.8445 16.4773 15.0157 16.4467 15.1814C16.4161 15.347 16.3524 15.5028 16.2604 15.6372C16.174 15.7606 16.0634 15.8603 15.9371 15.9286C15.8108 15.997 15.6722 16.0321 15.532 16.0313Z" fill="#666666"/>
<path d="M4.87981 9.64922C3.71123 9.64922 2.68377 8.43483 2.58847 6.94245C2.54131 6.17789 2.75451 5.47085 3.18621 4.95236C3.61326 4.43906 4.21565 4.15625 4.87981 4.15625C5.54397 4.15625 6.14171 4.44055 6.57108 4.95681C7.00611 5.47939 7.21864 6.18494 7.16883 6.94319C7.07352 8.4352 6.0464 9.64922 4.87981 9.64922Z" fill="#666666"/>
<path d="M7.06187 10.8157C6.47774 10.4965 5.71961 10.3369 4.88177 10.3369C3.90347 10.3369 2.95339 10.622 2.20622 11.1393C1.35908 11.7269 0.789237 12.5824 0.559107 13.6153C0.525429 13.7638 0.522244 13.919 0.549789 14.0691C0.577335 14.2193 0.634897 14.3605 0.718172 14.4823C0.79719 14.5956 0.898419 14.6872 1.01408 14.75C1.12973 14.8128 1.25674 14.8451 1.38532 14.8445H5.07139C5.13361 14.8445 5.19384 14.8201 5.2416 14.7755C5.28936 14.7309 5.32161 14.6691 5.33274 14.6006C5.33639 14.5773 5.34104 14.5539 5.34635 14.5309C5.62795 13.2667 6.28779 12.1986 7.26278 11.4199C7.29864 11.391 7.32748 11.3526 7.34669 11.3081C7.3659 11.2636 7.37488 11.2145 7.3728 11.1651C7.37072 11.1158 7.35766 11.0678 7.33479 11.0255C7.31193 10.9832 7.27998 10.948 7.24186 10.923C7.18972 10.8888 7.12995 10.8528 7.06187 10.8157Z" fill="#666666"/>
</svg>
